Coordinates
version=1
nRows=19
nColumns=34
inDegrees=yes

Units are S.I. units (second, meters, Newtons, ...)
If the header above contains a line with 'inDegrees', this indicates whether rotational values are in degrees (yes) or radians (no).

endheader
time	pelvis_tilt	pelvis_list	pelvis_rotation	pelvis_tx	pelvis_ty	pelvis_tz	hip_flexion_r	hip_adduction_r	hip_rotation_r	knee_angle_r	ankle_angle_r	subtalar_angle_r	mtp_angle_r	hip_flexion_l	hip_adduction_l	hip_rotation_l	knee_angle_l	ankle_angle_l	subtalar_angle_l	mtp_angle_l	lumbar_extension	lumbar_bending	lumbar_rotation	arm_flex_r	arm_add_r	arm_rot_r	elbow_flex_r	pro_sup_r	arm_flex_l	arm_add_l	arm_rot_l	elbow_flex_l	pro_sup_l
      2.48333330	     12.21475787	     -6.64936915	    -20.39467780	      2.70938467	      1.00854687	      0.63074760	     17.41942596	      2.84720163	     -8.59510173	     33.96717579	     13.51202548	     13.31567190	      0.00000000	      9.09762673	     12.36713376	      2.71010904	     11.89059858	     -3.77006750	    -13.40533526	      0.00000000	    -15.41969112	     -0.81510246	      2.96425242	     23.50946146	      6.43796971	     26.65603663	     17.30521984	    113.55189870	     17.88689573	      4.21446494	     22.71364446	     29.36298426	    113.70158828
      2.50000000	     12.58863674	     -7.29882218	    -20.17325000	      2.70950230	      1.01036083	      0.62947455	     17.03057072	      3.25776411	     -8.30133117	     34.32728340	     12.16343563	     12.04015668	      0.00000000	      8.11033139	     11.95919842	      3.47664190	     11.30109462	     -4.13892314	    -13.68975916	      0.00000000	    -16.00176885	     -0.33104120	      2.94134524	     23.60090185	      6.58112937	     23.48382508	     17.62546851	    113.31958224	     17.95803519	      4.10541972	     23.57466682	     30.09312328	    113.43104053
      2.51666670	     12.76614155	     -7.49225123	    -19.90610197	      2.70964521	      1.01101227	      0.62833743	     17.20247917	      3.15900390	     -8.29865919	     35.06106279	     11.26491027	     11.30332150	      0.00000000	      7.66499900	     11.89830953	      3.65630252	     10.96262191	     -4.40183942	    -13.58908259	      0.00000000	    -16.25687092	     -0.17441254	      2.52774034	     23.82661265	      6.71058831	     22.34779432	     17.80346821	    113.29501342	     17.79861767	      3.72083072	     23.87919617	     31.35661130	    113.41553214
      2.53333330	     13.14356953	     -8.01706770	    -19.68951809	      2.70984979	      1.01208160	      0.62790128	     16.80175253	      3.35457325	     -8.72995896	     35.37672274	     10.55584264	     10.63513635	      0.00000000	      7.00321816	     11.58476462	      4.24071325	     10.95540779	     -4.33853004	    -14.04388892	      0.00000000	    -16.74755661	      0.14454330	      2.35433245	     23.86270903	      6.99807173	     19.51938134	     18.22215743	    113.17924734	     17.77054869	      3.43767331	     24.23582914	     32.26873268	    113.51202106
      2.55000000	     13.15835566	     -8.13715781	    -19.72920421	      2.71047566	      1.01232820	      0.62757592	     16.76665429	      3.30617408	     -8.72797552	     35.44424675	     10.53676317	     10.63474732	      0.00000000	      6.93578043	     11.51508439	      4.24114751	     11.01087667	     -4.34414930	    -14.05205752	      0.00000000	    -16.61892232	      0.08887701	      2.31233204	     23.94172771	      6.99206798	     19.49965192	     18.25525576	    113.17780122	     17.79689339	      3.49700672	     24.25333691	     32.32284071	    113.51575652
      2.56666670	     13.37286680	     -8.93379944	    -19.24467157	      2.71168005	      1.01303231	      0.62632044	     16.05232818	      3.52994750	    -10.00566653	     35.31993399	     10.26348864	     11.05349251	      0.00000000	      6.70807592	     10.95270207	      4.89662902	     11.81008514	     -3.84085370	    -14.59156291	      0.00000000	    -17.00470775	      0.93885134	      1.92859994	     23.68068853	      7.22099994	     15.71826146	     18.89519286	    112.88632404	     17.27526593	      3.30299920	     24.63009219	     33.61823259	    113.79426240
      2.58333330	     13.41882532	     -9.38514626	    -19.57559300	      2.71125557	      1.01313249	      0.62610361	     15.90760271	      3.81732161	    -10.19870535	     35.44467244	     10.16190224	     11.24933489	      0.00000000	      6.95696323	     10.54209827	      4.65238885	     12.58408659	     -3.67967025	    -15.03100200	      0.00000000	    -17.20608420	      1.21919208	      2.27687858	     23.84376463	      7.11289716	     15.19560620	     19.07383236	    112.92292554	     17.23930638	      3.27516441	     24.73837204	     34.08626033	    113.84975213
      2.60000000	     13.16133010	    -10.27071193	    -19.35439292	      2.71119841	      1.01322133	      0.62485850	     15.60079415	      4.61352792	    -10.67865318	     34.85352315	     10.12744644	     11.31727342	      0.00000000	      7.61798446	      9.65170250	      4.84863819	     13.96886848	     -2.95284249	    -15.04378588	      0.00000000	    -17.31097167	      2.36192400	      2.23147088	     23.95631175	      7.04296845	     13.87683090	     19.24222370	    113.00543882	     17.26630416	      3.30765928	     25.37510132	     34.46224440	    114.08972387
      2.61666670	     13.05032833	    -10.75888932	    -19.19916785	      2.71194912	      1.01308811	      0.62429953	     15.30546411	      5.25446418	    -10.57345788	     34.38299513	      9.72495915	     10.51602033	      0.00000000	      8.18735458	      9.17752014	      4.72349644	     15.28942816	     -2.27836022	    -14.88658029	      0.00000000	    -17.27357570	      2.92684707	      2.27692982	     23.81877453	      7.01280735	     12.56339690	     19.59727302	    113.11945105	     17.10986252	      3.33590144	     25.80386904	     34.73459742	    114.16287435
      2.63333330	     12.95482281	    -11.36396618	    -19.03039004	      2.71333398	      1.01323097	      0.62370360	     14.98116450	      5.96197881	    -10.51186465	     34.03355287	      9.43007634	      9.70335445	      0.00000000	      8.66180184	      8.58825441	      4.63103907	     16.60584012	     -1.58884751	    -14.65357893	      0.00000000	    -17.18195043	      3.66797039	      2.41007469	     23.73908211	      6.85833837	     11.43855808	     19.68611260	    113.28282134	     16.94949559	      3.42684836	     26.23938636	     34.92919198	    114.13583215
      2.65000000	     13.10163384	    -11.59806664	    -18.89808027	      2.71450673	      1.01332020	      0.62360594	     14.66151108	      6.22373402	    -10.33898470	     33.96205210	      9.48702029	      9.46948763	      0.00000000	      8.86473386	      8.46054331	      4.62994157	     17.60162480	     -1.26571002	    -14.79000111	      0.00000000	    -17.26975231	      3.86240071	      2.44899286	     23.75871733	      6.78264386	     11.20202701	     19.69980281	    113.33690535	     16.93591403	      3.30837363	     26.37768888	     35.08588656	    114.12170709
      2.66666670	     12.93661422	    -12.34838144	    -18.74495866	      2.71604617	      1.01359508	      0.62446600	     14.24582818	      7.32107775	    -10.07022891	     33.39364353	      9.13829419	      8.73672727	      0.00000000	      9.28484106	      7.65723415	      4.72390877	     18.87638496	     -0.59965551	    -14.85806902	      0.00000000	    -17.21021792	      4.67545977	      2.63240820	     23.63295040	      6.66955545	     10.80857572	     19.66992686	    113.45983724	     16.68585632	      3.08212720	     26.84604424	     35.44604264	    114.09575127
      2.68333330	     12.93941369	    -12.33973608	    -18.73823663	      2.71744755	      1.01398607	      0.62522692	     14.02128206	      7.37998252	    -10.18255847	     33.14180297	      8.90738379	      8.59653626	      0.00000000	      9.38590745	      7.70161062	      4.73088739	     19.26910548	     -0.41732476	    -15.04501032	      0.00000000	    -17.09605061	      4.47278110	      2.89980681	     23.46715295	      6.49729041	     10.76836363	     19.55416723	    113.49036432	     16.58090548	      2.99990613	     26.88498133	     35.47165968	    114.09181157
      2.70000000	     12.65561534	    -12.94343807	    -18.61756688	      2.71792403	      1.01417864	      0.62640977	     13.81617203	      8.39071842	    -10.00221895	     32.50927372	      8.57335490	      7.89931372	      0.00000000	     10.02833514	      7.02218258	      4.86181584	     20.46967871	     -0.23271530	    -15.88270765	      0.00000000	    -17.02540992	      5.00758889	      3.29041624	     23.36031344	      6.23915245	     10.60744501	     19.54755641	    113.72767288	     16.45141778	      2.72723198	     27.53980237	     35.91319760	    114.14962769
      2.71666670	     12.74178253	    -12.96152635	    -18.34281969	      2.71797285	      1.01460859	      0.62746779	     13.64337173	      8.47263554	    -10.18852593	     32.38076742	      8.65582711	      7.78572735	      0.00000000	     10.29014555	      7.01137301	      4.84640638	     21.15479460	     -0.27598569	    -16.11005344	      0.00000000	    -17.18406652	      4.71118059	      3.59449852	     23.33419978	      6.10524800	     10.57807363	     19.45747249	    113.76860692	     16.47999424	      2.64792218	     27.56403550	     35.94683830	    114.15101026
      2.73333330	     12.31794887	    -13.39392081	    -17.68539359	      2.71828769	      1.01420305	      0.62740843	     13.78196833	      9.03164770	    -10.79883551	     31.97302612	      8.46378954	      7.49516255	      0.00000000	     11.33483355	      6.57055685	      5.27189297	     22.55621242	     -0.69121471	    -17.09401196	      0.00000000	    -17.03011781	      5.32768981	      3.56364300	     23.36625688	      5.81258629	     10.40902758	     19.30076983	    114.06403471	     16.59664717	      2.54215578	     28.05524091	     35.78679233	    114.22602176
      2.75000000	     12.29012692	    -13.37498640	    -17.26669087	      2.71912180	      1.01452297	      0.62783245	     13.70461667	      9.00414243	    -11.16381536	     31.85614713	      8.61836757	      7.27036534	      0.00000000	     11.71716289	      6.58115589	      5.04888951	     23.22015413	     -0.95266512	    -17.37904861	      0.00000000	    -17.15261822	      5.23972646	      3.62184601	     23.45897564	      5.60186885	     10.37137632	     19.23823175	    114.15752361	     16.68976885	      2.46212179	     28.06892405	     35.51781241	    114.23250307
      2.76666670	     11.80895126	    -13.53938147	    -16.67370267	      2.71989936	      1.01405452	      0.62809375	     13.93952517	      9.27653089	    -11.87197784	     31.45775265	      8.54049554	      7.16776131	      0.00000000	     12.65654048	      6.31092572	      5.04227975	     24.12964214	     -1.40861556	    -17.89231578	      0.00000000	    -16.85050571	      5.55792125	      3.47618994	     23.54371593	      5.42546981	     10.32514041	     18.91705550	    114.42896742	     17.03743495	      2.49198790	     28.28001916	     34.68645093	    114.30475264
      2.78333330	     11.46921067	    -13.52571233	    -16.07696463	      2.72147397	      1.01399097	      0.62885245	     14.10611700	      9.39657973	    -12.31760868	     31.18672028	      8.52901493	      6.67367955	      0.00000000	     13.31260901	      6.23061444	      5.05905589	     24.78207487	     -1.71434737	    -17.84788666	      0.00000000	    -16.43378960	      5.66414876	      3.22705876	     23.41904517	      5.27237260	     10.31418439	     18.80803482	    114.71902571	     17.20455998	      2.49838948	     28.23805618	     33.86479595	    114.37778432
